<svg viewBox="0 0 32 32" xmlns="http://www.w3.org/2000/svg">
  <path fill="#ffc727" d="M21.918 4.396c-2.263-0.566-4.526-1.698-6.223-3.397-1.697 1.698-3.96 2.83-6.223 3.397 0.566 5.095 2.263 8.491 6.223 11.322 3.96-2.831 6.223-6.227 6.223-11.322z"></path>
  <path fill="#fbfbfb" d="M19.655 25.474l-15.84-18.681v9.057l12.446 14.152 3.394-4.529z"></path>
  <path fill="#fbfbfb" d="M21.352 23.776l6.789-7.925v-8.491l-10.749 12.454 3.96 3.963z"></path>
  <path fill="#fbfbfb" d="M21.918 26.606v5.095l6.223-7.359v-5.095l-6.223 7.359z"></path>
  <path fill="#fbfbfb" d="M10.037 26.606l-6.223-7.359v5.095l6.223 7.359v-5.095z"></path>
</svg>
