<svg aria-hidden="true" style="position: absolute; width: 0; height: 0; overflow: hidden;" version="1.1" xmlns="http://www.w3.org/2000/svg" xmlns:xlink="http://www.w3.org/1999/xlink">
<defs>
<symbol id="icon-icon-logo" viewBox="0 0 32 32">
<path fill="#ffc727" style="fill: var(--color1, #ffc727)" d="M21.918 4.396c-2.263-0.566-4.526-1.698-6.223-3.397-1.697 1.698-3.96 2.83-6.223 3.397 0.566 5.095 2.263 8.491 6.223 11.322 3.96-2.831 6.223-6.227 6.223-11.322z"></path>
<path fill="#fbfbfb" style="fill: var(--color2, #fbfbfb)" d="M19.655 25.474l-15.84-18.681v9.057l12.446 14.152 3.394-4.529z"></path>
<path fill="#fbfbfb" style="fill: var(--color2, #fbfbfb)" d="M21.352 23.776l6.789-7.925v-8.491l-10.749 12.454 3.96 3.963z"></path>
<path fill="#fbfbfb" style="fill: var(--color2, #fbfbfb)" d="M21.918 26.606v5.095l6.223-7.359v-5.095l-6.223 7.359z"></path>
<path fill="#fbfbfb" style="fill: var(--color2, #fbfbfb)" d="M10.037 26.606l-6.223-7.359v5.095l6.223 7.359v-5.095z"></path>
</symbol>
<symbol id="icon-icon-plus" viewBox="0 0 32 32">
<path fill="none" stroke="#fbfbfb" style="stroke: var(--color2, #fbfbfb)" stroke-linejoin="miter" stroke-linecap="butt" stroke-miterlimit="4" stroke-width="3.2" d="M16 0v32"></path>
<path fill="none" stroke="#fbfbfb" style="stroke: var(--color2, #fbfbfb)" stroke-linejoin="miter" stroke-linecap="butt" stroke-miterlimit="4" stroke-width="3.2" d="M0 16h32"></path>
</symbol>
<symbol id="icon-icon-arrow" viewBox="0 0 32 32">
<path fill="none" stroke="#fbfbfb" style="stroke: var(--color2, #fbfbfb)" stroke-linejoin="miter" stroke-linecap="butt" stroke-miterlimit="4" stroke-width="1.6842" d="M30.911 23.086l-15.158-15.158-15.158 15.158"></path>
</symbol>
<symbol id="icon-icon-date" viewBox="0 0 32 32">
<path fill="#734aef" style="fill: var(--color3, #734aef)" d="M12 14.667h-2.667v2.667h2.667v-2.667zM17.333 14.667h-2.667v2.667h2.667v-2.667zM22.667 14.667h-2.667v2.667h2.667v-2.667zM25.333 5.333h-1.333v-2.667h-2.667v2.667h-10.667v-2.667h-2.667v2.667h-1.333c-1.48 0-2.653 1.2-2.653 2.667l-0.013 18.667c0 1.467 1.187 2.667 2.667 2.667h18.667c1.467 0 2.667-1.2 2.667-2.667v-18.667c0-1.467-1.2-2.667-2.667-2.667zM25.333 26.667h-18.667v-14.667h18.667v14.667z"></path>
</symbol>
<symbol id="icon-icon-email" viewBox="0 0 32 32">
<path fill="#fff" style="fill: var(--color4, #fff)" opacity="0.4" d="M26.667 5.333h-21.333c-1.467 0-2.653 1.2-2.653 2.667l-0.013 16c0 1.467 1.2 2.667 2.667 2.667h21.333c1.467 0 2.667-1.2 2.667-2.667v-16c0-1.467-1.2-2.667-2.667-2.667zM26.667 10.667l-10.667 6.667-10.667-6.667v-2.667l10.667 6.667 10.667-6.667v2.667z"></path>
</symbol>
<symbol id="icon-icon-home" viewBox="0 0 32 32">
<path fill="#fbfbfb" style="fill: var(--color2, #fbfbfb)" d="M10.105 5.895h11.789c0.93 0 1.684 0.754 1.684 1.684v11.789c0 0.93-0.754 1.684-1.684 1.684h-11.789c-0.93 0-1.684-0.754-1.684-1.684v-11.789c0-0.93 0.754-1.684 1.684-1.684z"></path>
<path fill="#734aef" style="fill: var(--color3, #734aef)" d="M10.105 5.895c-0.93 0-1.684 0.754-1.684 1.684v11.789c0 0.93 0.754 1.684 1.684 1.684h11.789c0.93 0 1.684-0.754 1.684-1.684v-11.789c0-0.93-0.754-1.684-1.684-1.684h-11.789zM14.989 14.415v3.269h-2.526v-4.359h-1.516l5.053-4.904 5.053 4.904h-1.516v4.359h-2.526v-3.269h-2.021z"></path>
</symbol>
<symbol id="icon-icon-lock" viewBox="0 0 32 32">
<path fill="#fff" style="fill: var(--color4, #fff)" opacity="0.4" d="M24 10.667h-1.333v-2.667c0-3.68-2.987-6.667-6.667-6.667s-6.667 2.987-6.667 6.667v2.667h-1.333c-1.467 0-2.667 1.2-2.667 2.667v13.333c0 1.467 1.2 2.667 2.667 2.667h16c1.467 0 2.667-1.2 2.667-2.667v-13.333c0-1.467-1.2-2.667-2.667-2.667zM16 22.667c-1.467 0-2.667-1.2-2.667-2.667s1.2-2.667 2.667-2.667c1.467 0 2.667 1.2 2.667 2.667s-1.2 2.667-2.667 2.667zM20.133 10.667h-8.267v-2.667c0-2.28 1.853-4.133 4.133-4.133s4.133 1.853 4.133 4.133v2.667z"></path>
</symbol>
<symbol id="icon-icon-timeline" viewBox="0 0 32 32">
<path fill="#fff" style="fill: var(--color4, #fff)" opacity="0.4" d="M6.667 4h18.667c1.473 0 2.667 1.194 2.667 2.667v18.667c0 1.473-1.194 2.667-2.667 2.667h-18.667c-1.473 0-2.667-1.194-2.667-2.667v-18.667c0-1.473 1.194-2.667 2.667-2.667zM23.636 14.222c0.933 0 1.697-0.8 1.697-1.778s-0.764-1.778-1.697-1.778-1.697 0.8-1.697 1.778c0 0.16 0.017 0.311 0.059 0.453l-3.012 3.165c-0.136-0.045-0.289-0.062-0.441-0.062s-0.305 0.018-0.441 0.062l-2.164-2.267c0.042-0.142 0.059-0.302 0.059-0.462 0-0.978-0.764-1.778-1.697-1.778s-1.697 0.8-1.697 1.778c0 0.16 0.017 0.32 0.059 0.462l-3.869 4.044c-0.136-0.044-0.28-0.062-0.433-0.062-0.933 0-1.697 0.8-1.697 1.778s0.764 1.778 1.697 1.778 1.697-0.8 1.697-1.778c0-0.16-0.017-0.311-0.059-0.453l3.861-4.053c0.136 0.044 0.288 0.062 0.441 0.062s0.305-0.018 0.441-0.062l2.164 2.267c-0.042 0.142-0.059 0.302-0.059 0.462 0 0.978 0.764 1.778 1.697 1.778s1.697-0.8 1.697-1.778c0-0.16-0.017-0.32-0.059-0.462l3.021-3.156c0.136 0.044 0.28 0.062 0.433 0.062z"></path>
</symbol>
<symbol id="icon-icon-close" viewBox="0 0 32 32">
<path fill="none" stroke="#fbfbfb" style="stroke: var(--color2, #fbfbfb)" stroke-linejoin="miter" stroke-linecap="butt" stroke-miterlimit="4" stroke-width="1.8824" d="M0.665 0.665l30.118 30.118"></path>
<path fill="none" stroke="#fbfbfb" style="stroke: var(--color2, #fbfbfb)" stroke-linejoin="miter" stroke-linecap="butt" stroke-miterlimit="4" stroke-width="1.8824" d="M0.665 30.783l30.118-30.118"></path>
</symbol>
<symbol id="icon-icon-edit" viewBox="0 0 32 32">
<path fill="none" stroke="#fff" style="stroke: var(--color4, #fff)" stroke-linejoin="round" stroke-linecap="round" stroke-miterlimit="4" stroke-width="2.7429" d="M24 13.334l-5.333-5.333M3.333 28.667l4.513-0.502c0.551-0.061 0.827-0.092 1.085-0.175 0.229-0.074 0.446-0.178 0.647-0.311 0.226-0.149 0.422-0.345 0.814-0.737l17.608-17.608c1.473-1.473 1.473-3.861 0-5.333s-3.861-1.473-5.333 0l-17.608 17.608c-0.392 0.392-0.588 0.588-0.737 0.814-0.132 0.201-0.237 0.418-0.311 0.647-0.083 0.258-0.114 0.533-0.175 1.085l-0.501 4.513z"></path>
</symbol>
<symbol id="icon-icon-exit" viewBox="0 0 32 32">
<path fill="#fff" style="fill: var(--color4, #fff)" opacity="0.6" d="M20.051 23.237h2.499v4.997c0 2.067-1.681 3.748-3.748 3.748h-15.054c-2.066 0-3.748-1.681-3.748-3.748v-24.486c0-2.066 1.681-3.748 3.748-3.748h15.054c2.067 0 3.748 1.681 3.748 3.748v4.997h-2.499v-4.997c0-0.689-0.56-1.249-1.249-1.249h-15.054c-0.689 0-1.249 0.561-1.249 1.249v24.486c0 0.689 0.561 1.249 1.249 1.249h15.054c0.689 0 1.249-0.561 1.249-1.249v-4.997zM26.111 10.102l-1.767 1.767 2.873 2.874h-16.161v2.499h16.161l-2.873 2.873 1.767 1.767 5.889-5.889-5.889-5.89z"></path>
</symbol>
<symbol id="icon-icon-user" viewBox="0 0 32 32">
<path fill="#fff" style="fill: var(--color4, #fff)" opacity="0.4" d="M16 20c-4.227 0-7.986 2.041-10.379 5.208-0.515 0.682-0.773 1.022-0.764 1.483 0.006 0.356 0.23 0.805 0.51 1.025 0.362 0.284 0.865 0.284 1.869 0.284h17.527c1.004 0 1.507 0 1.869-0.284 0.28-0.22 0.503-0.669 0.51-1.025 0.008-0.461-0.249-0.801-0.764-1.483-2.393-3.167-6.152-5.208-10.379-5.208z"></path>
<path fill="#fff" style="fill: var(--color4, #fff)" opacity="0.4" d="M16 16c3.314 0 6-2.686 6-6s-2.686-6-6-6c-3.314 0-6 2.686-6 6s2.686 6 6 6z"></path>
</symbol>
</defs>
</svg>
